<svg xmlns="http://www.w3.org/2000/svg" viewBox="0 0 400 400" role="img" aria-label="Lucas Barcia">
  <defs>
    <radialGradient id="bg" cx="35%" cy="25%" r="75%">
      <stop offset="0" stop-color="#24f3f0" stop-opacity="0.95"/>
      <stop offset="0.45" stop-color="#0f6b74" stop-opacity="0.85"/>
      <stop offset="1" stop-color="#09131f"/>
    </radialGradient>
    <linearGradient id="ring" x1="0" x2="1" y1="0" y2="1">
      <stop offset="0" stop-color="#24f3f0"/>
      <stop offset="1" stop-color="#7af7ff"/>
    </linearGradient>
    <filter id="glow" x="-30%" y="-30%" width="160%" height="160%">
      <feGaussianBlur stdDeviation="10" result="blur"/>
      <feMerge><feMergeNode in="blur"/><feMergeNode in="SourceGraphic"/></feMerge>
    </filter>
  </defs>
  <rect width="400" height="400" rx="90" fill="url(#bg)"/>
  <circle cx="200" cy="200" r="150" fill="none" stroke="url(#ring)" stroke-width="4" opacity="0.45"/>
  <path d="M122 270V126h34v113h70v31H122Zm117 0V126h55c18 0 32 4 43 12s16 20 16 35c0 9-2 17-7 24s-11 12-19 15c10 3 18 8 23 16s8 17 8 28c0 17-6 31-17 40s-27 14-48 14h-54Zm34-86h20c8 0 15-2 19-6s7-9 7-16c0-8-2-14-7-18s-11-6-20-6h-19v46Zm0 72h23c9 0 16-2 21-7s8-11 8-19c0-17-9-25-28-25h-24v51Z" fill="#efffff" filter="url(#glow)"/>
  <text x="200" y="330" text-anchor="middle" font-family="Inter, Arial, sans-serif" font-size="24" font-weight="700" fill="#efffff">Lucas Barcia</text>
  <text x="200" y="360" text-anchor="middle" font-family="Inter, Arial, sans-serif" font-size="17" fill="#99f7ff">Audiovisual</text>
</svg>